<?xml version="1.0" encoding="UTF-8"?><svg id="Ebene_1" xmlns="http://www.w3.org/2000/svg" viewBox="0 0 24 24"><path d="M22,5.88H9.5c-.3,0-.54-.24-.54-.54s.24-.54,.54-.54h12.5c.3,0,.54,.24,.54,.54s-.24,.54-.54,.54Z"/><path d="M18.67,10.32H9.5c-.3,0-.54-.24-.54-.54s.24-.54,.54-.54h9.17c.3,0,.54,.24,.54,.54s-.24,.54-.54,.54Z"/><path d="M17.32,19.21h-7.82c-.3,0-.54-.24-.54-.54s.24-.54,.54-.54h7.82c.3,0,.54,.24,.54,.54s-.24,.54-.54,.54Z"/><path d="M22,14.76H9.5c-.3,0-.54-.24-.54-.54s.24-.54,.54-.54h12.5c.3,0,.54,.24,.54,.54s-.24,.54-.54,.54Z"/><path d="M7.38,17.4525c.21,.22,.21,.56,0,.77l-2.5,2.5c-.22,.21-.56,.21-.77,0l-2.5-2.5c-.21-.22-.21-.56,0-.77,.22-.21,.56-.21,.77,0l2.12,2.12,2.12-2.12c.1-.11,.24-.16,.38-.16s.27,.05,.38,.16Z"/><path d="M4.5,3.1325c.3,0,.54,.24,.54,.54V20.3325c0,.3-.24,.54-.54,.54s-.54-.24-.54-.54V3.6625c0-.3,.24-.54,.54-.54v.01Z"/></svg>