<?xml version="1.0" encoding="UTF-8"?>
<svg xmlns="http://www.w3.org/2000/svg" viewBox="0 0 24 24">
  <g id="Ebene_297" data-name="Ebene 297"/>
  <g id="wf-top-priority">
    <g>
      <g>
        <path d="M22,5.88H9.5c-.3,0-.54-.24-.54-.54s.24-.54,.54-.54h12.5c.3,0,.54,.24,.54,.54s-.24,.54-.54,.54Z"/>
        <path d="M18.67,10.32H9.5c-.3,0-.54-.24-.54-.54s.24-.54,.54-.54h9.17c.3,0,.54,.24,.54,.54s-.24,.54-.54,.54Z"/>
        <path d="M17.32,19.21h-7.82c-.3,0-.54-.24-.54-.54s.24-.54,.54-.54h7.82c.3,0,.54,.24,.54,.54s-.24,.54-.54,.54Z"/>
        <path d="M22,14.76H9.5c-.3,0-.54-.24-.54-.54s.24-.54,.54-.54h12.5c.3,0,.54,.24,.54,.54s-.24,.54-.54,.54Z"/>
      </g>
      <g>
        <path d="M7,6.71c-.14,0-.28-.05-.38-.16l-2.12-2.12-2.12,2.12c-.21,.21-.55,.21-.77,0-.21-.21-.21-.55,0-.77l2.5-2.5c.21-.21,.55-.21,.77,0l2.5,2.5c.21,.21,.21,.55,0,.77-.11,.11-.24,.16-.38,.16Z"/>
        <path d="M4.5,20.88c-.3,0-.54-.24-.54-.54V3.67c0-.3,.24-.54,.54-.54s.54,.24,.54,.54V20.33c0,.3-.24,.54-.54,.54Z"/>
      </g>
    </g>
  </g>
</svg>